<mxfile host="app.diagrams.net" agent="Mozilla/5.0 (Windows NT 10.0; Win64; x64) AppleWebKit/537.36 (KHTML, like Gecko) Chrome/129.0.0.0 Safari/537.36" version="24.7.17">
  <diagram name="Page-1" id="e7e014a7-5840-1c2e-5031-d8a46d1fe8dd">
    <mxGraphModel dx="1290" dy="563" grid="1" gridSize="10" guides="1" tooltips="1" connect="1" arrows="1" fold="1" page="1" pageScale="1" pageWidth="1169" pageHeight="826" background="none" math="0" shadow="0">
      <root>
        <mxCell id="0" />
        <mxCell id="1" parent="0" />
        <mxCell id="2" value="User" style="swimlane;whiteSpace=wrap" parent="1" vertex="1">
          <mxGeometry x="10" y="128" width="435" height="672" as="geometry" />
        </mxCell>
        <mxCell id="5" value="" style="ellipse;shape=startState;fillColor=#000000;strokeColor=#ff0000;" parent="2" vertex="1">
          <mxGeometry x="195" y="40" width="30" height="30" as="geometry" />
        </mxCell>
        <mxCell id="6" value="" style="edgeStyle=elbowEdgeStyle;elbow=horizontal;verticalAlign=bottom;endArrow=open;endSize=8;strokeColor=#FF0000;endFill=1;rounded=0" parent="2" source="5" target="7" edge="1">
          <mxGeometry x="100" y="40" as="geometry">
            <mxPoint x="115" y="110" as="targetPoint" />
          </mxGeometry>
        </mxCell>
        <mxCell id="7" value="Đăng nhập" style="" parent="2" vertex="1">
          <mxGeometry x="155" y="110" width="110" height="50" as="geometry" />
        </mxCell>
        <mxCell id="8" value="Chọn biểu tượng chat" style="" parent="2" vertex="1">
          <mxGeometry x="130" y="192" width="160" height="38" as="geometry" />
        </mxCell>
        <mxCell id="9" value="" style="endArrow=open;strokeColor=#FF0000;endFill=1;rounded=0" parent="2" source="7" target="8" edge="1">
          <mxGeometry relative="1" as="geometry" />
        </mxCell>
        <mxCell id="loQoqSKvlok-yd1IncK7-80" value="Chọn nhóm chat" style="" parent="2" vertex="1">
          <mxGeometry x="155" y="382" width="110" height="50" as="geometry" />
        </mxCell>
        <mxCell id="x0wG9BkbI5nVvvz7XnMi-22" value="Chọn người cần chat" style="" parent="2" vertex="1">
          <mxGeometry x="124.75" y="262" width="170.5" height="32" as="geometry" />
        </mxCell>
        <mxCell id="8qiVeYxeAFrH9ajzW6Vb-25" value="Chat" style="" vertex="1" parent="2">
          <mxGeometry x="124.75" y="322" width="170.5" height="32" as="geometry" />
        </mxCell>
        <mxCell id="8qiVeYxeAFrH9ajzW6Vb-35" value="Chọn nhóm chat" style="" vertex="1" parent="2">
          <mxGeometry x="124.75" y="462" width="170.5" height="32" as="geometry" />
        </mxCell>
        <mxCell id="8qiVeYxeAFrH9ajzW6Vb-36" value="Chat" style="" vertex="1" parent="2">
          <mxGeometry x="124.75" y="512" width="170.5" height="32" as="geometry" />
        </mxCell>
        <mxCell id="3" value="Hệ thống" style="swimlane;whiteSpace=wrap" parent="1" vertex="1">
          <mxGeometry x="445" y="128" width="345" height="672" as="geometry" />
        </mxCell>
        <mxCell id="8qiVeYxeAFrH9ajzW6Vb-21" value="Trả về danh sách chat" style="" vertex="1" parent="3">
          <mxGeometry x="45" y="192" width="160" height="38" as="geometry" />
        </mxCell>
        <mxCell id="8qiVeYxeAFrH9ajzW6Vb-23" value="Hiển thị đoạn chat" style="" vertex="1" parent="3">
          <mxGeometry x="34.5" y="262" width="170.5" height="32" as="geometry" />
        </mxCell>
        <mxCell id="8qiVeYxeAFrH9ajzW6Vb-26" value="Trả về danh sách nhóm chat" style="" vertex="1" parent="3">
          <mxGeometry x="45" y="388" width="160" height="38" as="geometry" />
        </mxCell>
        <mxCell id="8qiVeYxeAFrH9ajzW6Vb-34" value="Hiển thị đoạn chat" style="" vertex="1" parent="3">
          <mxGeometry x="34.5" y="462" width="170.5" height="32" as="geometry" />
        </mxCell>
        <mxCell id="loQoqSKvlok-yd1IncK7-41" value="" style="ellipse;shape=endState;fillColor=#000000;strokeColor=#ff0000" parent="3" vertex="1">
          <mxGeometry x="115.25" y="632" width="30" height="30" as="geometry" />
        </mxCell>
        <mxCell id="8qiVeYxeAFrH9ajzW6Vb-41" value="Chuyển về trang chủ" style="" vertex="1" parent="3">
          <mxGeometry x="45" y="532" width="170.5" height="32" as="geometry" />
        </mxCell>
        <mxCell id="8qiVeYxeAFrH9ajzW6Vb-40" value="" style="endArrow=open;strokeColor=#FF0000;endFill=1;rounded=0;" edge="1" parent="3" source="8qiVeYxeAFrH9ajzW6Vb-41" target="loQoqSKvlok-yd1IncK7-41">
          <mxGeometry relative="1" as="geometry">
            <mxPoint x="225" y="362" as="sourcePoint" />
            <mxPoint x="55" y="417" as="targetPoint" />
          </mxGeometry>
        </mxCell>
        <mxCell id="8qiVeYxeAFrH9ajzW6Vb-22" value="" style="endArrow=open;strokeColor=#FF0000;endFill=1;rounded=0;" edge="1" parent="1" source="8" target="8qiVeYxeAFrH9ajzW6Vb-21">
          <mxGeometry relative="1" as="geometry">
            <mxPoint x="500" y="366" as="sourcePoint" />
            <mxPoint x="306" y="407" as="targetPoint" />
          </mxGeometry>
        </mxCell>
        <mxCell id="x0wG9BkbI5nVvvz7XnMi-24" value="" style="endArrow=open;strokeColor=#FF0000;endFill=1;rounded=0;" parent="1" source="8qiVeYxeAFrH9ajzW6Vb-21" target="x0wG9BkbI5nVvvz7XnMi-22" edge="1">
          <mxGeometry relative="1" as="geometry">
            <mxPoint x="225" y="298" as="sourcePoint" />
            <mxPoint x="225" y="330" as="targetPoint" />
          </mxGeometry>
        </mxCell>
        <mxCell id="8qiVeYxeAFrH9ajzW6Vb-24" value="" style="endArrow=open;strokeColor=#FF0000;endFill=1;rounded=0" edge="1" parent="1" source="x0wG9BkbI5nVvvz7XnMi-22" target="8qiVeYxeAFrH9ajzW6Vb-23">
          <mxGeometry relative="1" as="geometry">
            <mxPoint x="260" y="439" as="sourcePoint" />
            <mxPoint x="318" y="470" as="targetPoint" />
          </mxGeometry>
        </mxCell>
        <mxCell id="loQoqSKvlok-yd1IncK7-87" value="" style="endArrow=open;strokeColor=#FF0000;endFill=1;rounded=0" parent="1" source="8qiVeYxeAFrH9ajzW6Vb-23" target="8qiVeYxeAFrH9ajzW6Vb-25" edge="1">
          <mxGeometry relative="1" as="geometry">
            <mxPoint x="240" y="380" as="sourcePoint" />
            <mxPoint x="308.125" y="460" as="targetPoint" />
          </mxGeometry>
        </mxCell>
        <mxCell id="8qiVeYxeAFrH9ajzW6Vb-33" value="" style="endArrow=open;strokeColor=#FF0000;endFill=1;rounded=0;" edge="1" parent="1" source="loQoqSKvlok-yd1IncK7-80" target="8qiVeYxeAFrH9ajzW6Vb-26">
          <mxGeometry relative="1" as="geometry">
            <mxPoint x="310" y="349" as="sourcePoint" />
            <mxPoint x="500" y="349" as="targetPoint" />
          </mxGeometry>
        </mxCell>
        <mxCell id="8qiVeYxeAFrH9ajzW6Vb-37" value="" style="endArrow=open;strokeColor=#FF0000;endFill=1;rounded=0;" edge="1" parent="1" source="8qiVeYxeAFrH9ajzW6Vb-26" target="8qiVeYxeAFrH9ajzW6Vb-35">
          <mxGeometry relative="1" as="geometry">
            <mxPoint x="300" y="545" as="sourcePoint" />
            <mxPoint x="490" y="545" as="targetPoint" />
          </mxGeometry>
        </mxCell>
        <mxCell id="8qiVeYxeAFrH9ajzW6Vb-38" value="" style="endArrow=open;strokeColor=#FF0000;endFill=1;rounded=0;" edge="1" parent="1" source="8qiVeYxeAFrH9ajzW6Vb-34" target="8qiVeYxeAFrH9ajzW6Vb-36">
          <mxGeometry relative="1" as="geometry">
            <mxPoint x="310" y="555" as="sourcePoint" />
            <mxPoint x="500" y="555" as="targetPoint" />
          </mxGeometry>
        </mxCell>
        <mxCell id="8qiVeYxeAFrH9ajzW6Vb-39" value="" style="endArrow=open;strokeColor=#FF0000;endFill=1;rounded=0;" edge="1" parent="1" source="8qiVeYxeAFrH9ajzW6Vb-35" target="8qiVeYxeAFrH9ajzW6Vb-34">
          <mxGeometry relative="1" as="geometry">
            <mxPoint x="320" y="565" as="sourcePoint" />
            <mxPoint x="510" y="565" as="targetPoint" />
          </mxGeometry>
        </mxCell>
        <mxCell id="8qiVeYxeAFrH9ajzW6Vb-42" value="" style="endArrow=open;strokeColor=#FF0000;endFill=1;rounded=0" edge="1" parent="1" source="8qiVeYxeAFrH9ajzW6Vb-25" target="8qiVeYxeAFrH9ajzW6Vb-41">
          <mxGeometry relative="1" as="geometry">
            <mxPoint x="490" y="431" as="sourcePoint" />
            <mxPoint x="315" y="461" as="targetPoint" />
            <Array as="points">
              <mxPoint x="680" y="466" />
              <mxPoint x="680" y="680" />
            </Array>
          </mxGeometry>
        </mxCell>
        <mxCell id="8qiVeYxeAFrH9ajzW6Vb-43" value="" style="endArrow=open;strokeColor=#FF0000;endFill=1;rounded=0;" edge="1" parent="1" source="8qiVeYxeAFrH9ajzW6Vb-36" target="8qiVeYxeAFrH9ajzW6Vb-41">
          <mxGeometry relative="1" as="geometry">
            <mxPoint x="285" y="545" as="sourcePoint" />
            <mxPoint x="500" y="545" as="targetPoint" />
          </mxGeometry>
        </mxCell>
      </root>
    </mxGraphModel>
  </diagram>
</mxfile>
